<svg width="29" height="28" viewBox="0 0 29 28" fill="none" xmlns="http://www.w3.org/2000/svg">
<g filter="url(#filter0_dd_0_63)">
<path d="M5 1.17578L7.08 1.5316L8.04301 12.8715C8.12001 13.7976 8.90301 14.5082 9.84301 14.5053H20.752C21.649 14.5072 22.41 13.8549 22.537 12.9772L23.486 6.49532C23.592 5.77083 23.083 5.09872 22.351 4.99395C22.287 4.98505 7.414 4.98011 7.414 4.98011" stroke="#363853" stroke-width="1.5" stroke-linecap="round" stroke-linejoin="round"/>
<path d="M16.375 8.63337H19.1479" stroke="#363853" stroke-width="1.5" stroke-linecap="round" stroke-linejoin="round"/>
<path fill-rule="evenodd" clip-rule="evenodd" d="M9.4043 17.9316C9.70527 17.9316 9.94824 18.1729 9.94824 18.4696C9.94824 18.7673 9.70527 19.0085 9.4043 19.0085C9.10333 19.0085 8.86035 18.7673 8.86035 18.4696C8.86035 18.1729 9.10333 17.9316 9.4043 17.9316Z" fill="#363853" stroke="#363853" stroke-width="1.5" stroke-linecap="round" stroke-linejoin="round"/>
<path fill-rule="evenodd" clip-rule="evenodd" d="M20.6846 17.9316C20.9856 17.9316 21.2296 18.1729 21.2296 18.4696C21.2296 18.7673 20.9856 19.0085 20.6846 19.0085C20.3836 19.0085 20.1406 18.7673 20.1406 18.4696C20.1406 18.1729 20.3836 17.9316 20.6846 17.9316Z" fill="#363853" stroke="#363853" stroke-width="1.5" stroke-linecap="round" stroke-linejoin="round"/>
</g>
<defs>
<filter id="filter0_dd_0_63" x="0.249878" y="0.425781" width="28.0003" height="27.3328" filterUnits="userSpaceOnUse" color-interpolation-filters="sRGB">
<feFlood flood-opacity="0" result="BackgroundImageFix"/>
<feColorMatrix in="SourceAlpha" type="matrix" values="0 0 0 0 0 0 0 0 0 0 0 0 0 0 0 0 0 0 127 0" result="hardAlpha"/>
<feOffset dy="4"/>
<feGaussianBlur stdDeviation="2"/>
<feComposite in2="hardAlpha" operator="out"/>
<feColorMatrix type="matrix" values="0 0 0 0 0 0 0 0 0 0 0 0 0 0 0 0 0 0 0.25 0"/>
<feBlend mode="normal" in2="BackgroundImageFix" result="effect1_dropShadow_0_63"/>
<feColorMatrix in="SourceAlpha" type="matrix" values="0 0 0 0 0 0 0 0 0 0 0 0 0 0 0 0 0 0 127 0" result="hardAlpha"/>
<feOffset dy="4"/>
<feGaussianBlur stdDeviation="2"/>
<feComposite in2="hardAlpha" operator="out"/>
<feColorMatrix type="matrix" values="0 0 0 0 0 0 0 0 0 0 0 0 0 0 0 0 0 0 0.25 0"/>
<feBlend mode="normal" in2="effect1_dropShadow_0_63" result="effect2_dropShadow_0_63"/>
<feBlend mode="normal" in="SourceGraphic" in2="effect2_dropShadow_0_63" result="shape"/>
</filter>
</defs>
</svg>
